<svg width="65.000000" height="493.000000" viewBox="0 0 65 493" fill="none" xmlns="http://www.w3.org/2000/svg" xmlns:xlink="http://www.w3.org/1999/xlink">
	<desc>
			Created with Pixso.
	</desc>
	<defs>
		<clipPath id="clip2_6685">
			<rect id="Icons/Home" width="18.000000" height="18.000000" transform="translate(24.000000 49.000000)" fill="white" fill-opacity="0"/>
		</clipPath>
		<clipPath id="clip2_6671">
			<rect id="file-code" width="16.500000" height="18.000000" transform="translate(25.000000 132.000000)" fill="white" fill-opacity="0"/>
		</clipPath>
		<clipPath id="clip2_6670">
			<rect id="Icons/Services" width="18.000000" height="18.000000" transform="translate(24.000000 132.000000)" fill="white" fill-opacity="0"/>
		</clipPath>
		<clipPath id="clip2_6662">
			<rect id="Icons/cv" width="18.000000" height="18.000000" transform="translate(24.000000 215.000000)" fill="white" fill-opacity="0"/>
		</clipPath>
		<clipPath id="clip2_6646">
			<rect id="Icons/Portfolio" width="18.000000" height="18.000000" transform="translate(24.000000 298.000000)" fill="white" fill-opacity="0"/>
		</clipPath>
		<clipPath id="clip2_6624">
			<rect id="Icons/Blog" width="18.000000" height="18.000000" transform="translate(24.000000 381.000000)" fill="white" fill-opacity="0"/>
		</clipPath>
		<clipPath id="clip2_6602">
			<rect id="Icons/Contact" width="18.000000" height="18.000000" transform="translate(24.000000 464.000000)" fill="white" fill-opacity="0"/>
		</clipPath>
	</defs>
	<path id="Union" d="M2 0L63 0C64.1045 0 65 0.895508 65 2L65 22C65 23.1045 64.1045 24 63 24L37.196 24L32 33L26.804 24L2 24C0.895508 24 0 23.1045 0 22L0 2C0 0.895508 0.895508 0 2 0Z" clip-rule="evenodd" fill="#2B2B2B" fill-opacity="1.000000" fill-rule="evenodd"/>
	<path id="Home" d="M17.27 18L15.95 18L15.95 9.27L17.27 9.27L17.27 13.06L21.62 13.06L21.62 9.27L22.94 9.27L22.94 18L21.62 18L21.62 14.19L17.27 14.19L17.27 18ZM30.57 14.75C30.57 16.78 29.36 18.13 27.51 18.13C25.67 18.13 24.46 16.78 24.46 14.75C24.46 12.72 25.67 11.37 27.51 11.37C29.36 11.37 30.57 12.72 30.57 14.75ZM33.26 18L31.98 18L31.98 11.45L33.21 11.45L33.21 12.51L33.29 12.51C33.56 11.8 34.2 11.37 35.07 11.37C35.94 11.37 36.55 11.8 36.83 12.51L36.9 12.51C37.21 11.82 37.92 11.37 38.86 11.37C40.05 11.37 40.88 12.11 40.88 13.61L40.88 18L39.61 18L39.61 13.73C39.61 12.84 39.05 12.46 38.38 12.46C37.55 12.46 37.07 13.04 37.07 13.82L37.07 18L35.8 18L35.8 13.64C35.8 12.93 35.31 12.46 34.6 12.46C33.88 12.46 33.26 13.08 33.26 13.96L33.26 18ZM48.14 16.36C47.85 17.42 46.84 18.13 45.41 18.13C43.48 18.13 42.29 16.8 42.29 14.76C42.29 12.75 43.49 11.37 45.32 11.37C46.8 11.37 48.22 12.29 48.22 14.66L48.22 15.11L43.56 15.11C43.6 16.37 44.33 17.08 45.42 17.08C46.15 17.08 46.7 16.76 46.93 16.14L48.14 16.36ZM45.33 12.42C44.29 12.42 43.62 13.22 43.57 14.15L46.97 14.15C46.96 13.15 46.32 12.42 45.33 12.42ZM25.75 14.75C25.75 16.01 26.31 17.06 27.52 17.06C28.72 17.06 29.28 16.01 29.28 14.75C29.28 13.5 28.72 12.43 27.52 12.43C26.31 12.43 25.75 13.5 25.75 14.75Z" fill="#FFFFFF" fill-opacity="1.000000" fill-rule="evenodd"/>
	<circle id="Ellipse 10" cx="33.000000" cy="58.000000" r="20.000000" fill="#FFB400" fill-opacity="1.000000"/>
	<rect id="Icons/Home" width="18.000000" height="18.000000" transform="translate(24.000000 49.000000)" fill="#FFFFFF" fill-opacity="0"/>
	<rect id="Icons/Home" width="18.000000" height="18.000000" transform="translate(24.000000 49.000000)" fill="#FFFFFF" fill-opacity="0"/>
	<rect id="Icons/Home" width="18.000000" height="18.000000" transform="translate(24.000000 49.000000)" fill="#FFFFFF" fill-opacity="0"/>
	<rect id="Icons/Home" width="18.000000" height="18.000000" transform="translate(24.000000 49.000000)" fill="#FFFFFF" fill-opacity="0"/>
	<g clip-path="url(#clip2_6685)">
		<path id="Vector" d="M39 64C39 64.19 38.92 64.38 38.78 64.53C38.63 64.67 38.44 64.75 38.25 64.75L27.75 64.75C27.55 64.75 27.36 64.67 27.21 64.53C27.07 64.38 27 64.19 27 64L27 57.25L24.75 57.25L32.49 50.2C32.63 50.08 32.81 50.01 33 50.01C33.18 50.01 33.36 50.08 33.5 50.2L41.25 57.25L39 57.25L39 64Z" fill="#2B2B2B" fill-opacity="1.000000" fill-rule="nonzero"/>
	</g>
	<circle id="Ellipse 10" cx="33.000000" cy="141.000000" r="20.000000" fill="#F0F0F6" fill-opacity="1.000000"/>
	<rect id="Icons/Services" width="18.000000" height="18.000000" transform="translate(24.000000 132.000000)" fill="#FFFFFF" fill-opacity="0"/>
	<rect id="Icons/Services" width="18.000000" height="18.000000" transform="translate(24.000000 132.000000)" fill="#FFFFFF" fill-opacity="0"/>
	<g clip-path="url(#clip2_6670)">
		<rect id="file-code" width="16.500000" height="18.000000" transform="translate(25.000000 132.000000)" fill="#000000" fill-opacity="0"/>
		<g clip-path="url(#clip2_6671)">
			<path id="Vector" d="M41.5 136.28L41.5 136.5L36 136.5L36 132L36.26 132C36.53 132 36.79 132.08 36.98 132.24L41.19 135.69C41.39 135.84 41.5 136.06 41.5 136.28ZM35.65 137.62C35.08 137.62 34.62 137.24 34.62 136.78L34.62 132L26.03 132C25.46 132 25 132.37 25 132.84L25 149.15C25 149.62 25.46 150 26.03 150L40.46 150C41.03 150 41.5 149.62 41.5 149.15L41.5 137.62L35.65 137.62ZM30.29 146.08C30.27 146.09 30.24 146.11 30.22 146.12C30.19 146.13 30.16 146.13 30.13 146.14C30.1 146.14 30.07 146.13 30.04 146.12C30.01 146.11 29.98 146.1 29.96 146.08L27.17 143.95C27.15 143.93 27.13 143.91 27.12 143.88C27.11 143.86 27.1 143.83 27.1 143.81C27.1 143.78 27.11 143.76 27.12 143.73C27.13 143.71 27.15 143.69 27.17 143.67L29.96 141.53C29.98 141.51 30.01 141.5 30.04 141.49C30.07 141.48 30.1 141.48 30.13 141.48C30.16 141.48 30.19 141.49 30.22 141.5C30.24 141.51 30.27 141.52 30.29 141.54L31.13 142.27C31.15 142.29 31.17 142.31 31.18 142.34C31.19 142.36 31.19 142.39 31.19 142.41C31.19 142.44 31.18 142.46 31.17 142.49C31.16 142.51 31.14 142.53 31.11 142.55L29.36 143.81L31.11 145.07C31.14 145.09 31.16 145.11 31.17 145.13C31.18 145.15 31.19 145.18 31.19 145.2C31.19 145.23 31.19 145.25 31.18 145.28C31.17 145.3 31.15 145.32 31.13 145.34L30.29 146.08ZM32.49 147.85L31.31 147.57C31.25 147.56 31.2 147.52 31.17 147.48C31.15 147.44 31.14 147.38 31.16 147.33L33.8 139.89C33.81 139.85 33.85 139.81 33.91 139.78C33.96 139.76 34.02 139.75 34.08 139.77L35.26 140.05C35.29 140.05 35.32 140.06 35.34 140.08C35.37 140.1 35.39 140.11 35.4 140.14C35.42 140.16 35.42 140.18 35.43 140.21C35.43 140.23 35.43 140.26 35.42 140.28L32.78 147.72C32.77 147.75 32.76 147.77 32.74 147.79C32.72 147.81 32.7 147.82 32.67 147.83C32.64 147.85 32.61 147.85 32.58 147.86C32.55 147.86 32.52 147.86 32.49 147.85ZM39.4 143.95L36.61 146.08C36.59 146.1 36.57 146.11 36.54 146.12C36.51 146.13 36.48 146.14 36.45 146.14C36.42 146.13 36.39 146.13 36.36 146.12C36.33 146.11 36.31 146.09 36.29 146.08L35.45 145.34C35.42 145.32 35.41 145.3 35.4 145.28C35.39 145.25 35.38 145.23 35.38 145.2C35.38 145.18 35.39 145.15 35.41 145.13C35.42 145.11 35.44 145.09 35.46 145.07L37.21 143.81L35.46 142.55C35.44 142.53 35.42 142.51 35.41 142.49C35.39 142.46 35.38 142.44 35.38 142.41C35.38 142.39 35.39 142.36 35.4 142.34C35.41 142.31 35.42 142.29 35.45 142.27L36.29 141.54C36.31 141.52 36.33 141.51 36.36 141.5C36.39 141.49 36.42 141.48 36.45 141.48C36.48 141.48 36.51 141.48 36.54 141.49C36.57 141.5 36.59 141.51 36.61 141.53L39.4 143.67C39.43 143.69 39.44 143.71 39.46 143.73C39.47 143.76 39.48 143.78 39.48 143.81C39.48 143.83 39.47 143.86 39.46 143.88C39.44 143.91 39.43 143.93 39.4 143.95Z" fill="#767676" fill-opacity="1.000000" fill-rule="nonzero"/>
		</g>
	</g>
	<circle id="Ellipse 11" cx="33.000000" cy="224.000000" r="20.000000" fill="#F0F0F6" fill-opacity="1.000000"/>
	<rect id="Icons/cv" width="18.000000" height="18.000000" transform="translate(24.000000 215.000000)" fill="#FFFFFF" fill-opacity="0"/>
	<rect id="Icons/cv" width="18.000000" height="18.000000" transform="translate(24.000000 215.000000)" fill="#FFFFFF" fill-opacity="0"/>
	<rect id="Icons/cv" width="18.000000" height="18.000000" transform="translate(24.000000 215.000000)" fill="#FFFFFF" fill-opacity="0"/>
	<g clip-path="url(#clip2_6662)">
		<path id="Vector" d="M36.76 226.27L33.25 229.62L29.73 226.27C27.1 226.38 25 228.43 25 230.97L25 231.31C25 232.24 25.79 233 26.76 233L39.73 233C40.7 233 41.5 232.24 41.5 231.31L41.5 230.97C41.5 228.43 39.39 226.38 36.76 226.27ZM25.5 217.8L25.73 217.85L25.73 219.91C25.47 220.06 25.29 220.31 25.29 220.62C25.29 220.92 25.46 221.16 25.7 221.31L25.12 223.5C25.06 223.75 25.2 224 25.4 224L26.94 224C27.15 224 27.29 223.75 27.22 223.5L26.65 221.31C26.89 221.16 27.06 220.92 27.06 220.62C27.06 220.31 26.87 220.06 26.62 219.91L26.62 218.06L29.05 218.62C28.73 219.22 28.53 219.9 28.53 220.62C28.53 223.11 30.64 225.12 33.25 225.12C35.85 225.12 37.96 223.11 37.96 220.62C37.96 219.9 37.76 219.22 37.44 218.62L40.99 217.8C41.66 217.65 41.66 216.85 40.99 216.69L33.98 215.08C33.5 214.97 32.99 214.97 32.52 215.08L25.5 216.69C24.83 216.85 24.83 217.65 25.5 217.8Z" fill="#767676" fill-opacity="1.000000" fill-rule="nonzero"/>
	</g>
	<circle id="Ellipse 12" cx="33.000000" cy="307.000000" r="20.000000" fill="#F0F0F6" fill-opacity="1.000000"/>
	<rect id="Icons/Portfolio" width="18.000000" height="18.000000" transform="translate(24.000000 298.000000)" fill="#FFFFFF" fill-opacity="0"/>
	<rect id="Icons/Portfolio" width="18.000000" height="18.000000" transform="translate(24.000000 298.000000)" fill="#FFFFFF" fill-opacity="0"/>
	<rect id="Icons/Portfolio" width="18.000000" height="18.000000" transform="translate(24.000000 298.000000)" fill="#FFFFFF" fill-opacity="0"/>
	<rect id="Icons/Portfolio" width="18.000000" height="18.000000" transform="translate(24.000000 298.000000)" fill="#727272" fill-opacity="0"/>
	<g clip-path="url(#clip2_6646)">
		<path id="Vector" d="M30.75 307.75L30.75 310L35.25 310L35.25 307.75L40.5 307.75L40.5 313C40.5 313.19 40.42 313.39 40.28 313.53C40.13 313.67 39.94 313.75 39.75 313.75L26.25 313.75C26.05 313.75 25.86 313.67 25.71 313.53C25.57 313.39 25.5 313.19 25.5 313L25.5 307.75L30.75 307.75ZM32.25 306.25L33.75 306.25L33.75 308.5L32.25 308.5L32.25 306.25ZM29.25 301.75L29.25 299.5C29.25 299.3 29.32 299.1 29.46 298.97C29.61 298.82 29.8 298.75 30 298.75L36 298.75C36.19 298.75 36.38 298.82 36.53 298.97C36.67 299.1 36.75 299.3 36.75 299.5L36.75 301.75L39.75 301.75C39.94 301.75 40.13 301.82 40.28 301.97C40.42 302.1 40.5 302.3 40.5 302.5L40.5 306.25L35.25 306.25L35.25 304.75L30.75 304.75L30.75 306.25L25.5 306.25L25.5 302.5C25.5 302.3 25.57 302.1 25.71 301.97C25.86 301.82 26.05 301.75 26.25 301.75L29.25 301.75ZM30.75 300.25L30.75 301.75L35.25 301.75L35.25 300.25L30.75 300.25Z" fill="#767676" fill-opacity="1.000000" fill-rule="nonzero"/>
	</g>
	<circle id="Ellipse 11" cx="33.000000" cy="390.000000" r="20.000000" fill="#F0F0F6" fill-opacity="1.000000"/>
	<rect id="Icons/Blog" width="18.000000" height="18.000000" transform="translate(24.000000 381.000000)" fill="#FFFFFF" fill-opacity="0"/>
	<rect id="Icons/Blog" width="18.000000" height="18.000000" transform="translate(24.000000 381.000000)" fill="#FFFFFF" fill-opacity="0"/>
	<rect id="Icons/Blog" width="18.000000" height="18.000000" transform="translate(24.000000 381.000000)" fill="#FFFFFF" fill-opacity="0"/>
	<rect id="Icons/Blog" width="18.000000" height="18.000000" transform="translate(24.000000 381.000000)" fill="#FFFFFF" fill-opacity="0"/>
	<g clip-path="url(#clip2_6624)">
		<path id="Vector" d="M39.75 382.5C28.5 382.5 27 393 26.25 397.5L27.74 397.5C28.24 395 29.49 393.62 31.5 393.37C34.5 393 36.75 390.37 37.5 388.12L36.37 387.37L37.12 386.62C37.87 385.87 38.62 384.75 39.75 382.5Z" fill="#767676" fill-opacity="1.000000" fill-rule="nonzero"/>
		<rect id="Rectangle 159" x="-14.000000" y="337.000000" width="100.000000" height="100.000000" fill="#D9D9D9" fill-opacity="1.000000"/>
	</g>
	<circle id="Ellipse 14" cx="33.000000" cy="473.000000" r="20.000000" fill="#F0F0F6" fill-opacity="1.000000"/>
	<rect id="Icons/Contact" width="18.000000" height="18.000000" transform="translate(24.000000 464.000000)" fill="#FFFFFF" fill-opacity="0"/>
	<rect id="Icons/Contact" width="18.000000" height="18.000000" transform="translate(24.000000 464.000000)" fill="#FFFFFF" fill-opacity="0"/>
	<rect id="Icons/Contact" width="18.000000" height="18.000000" transform="translate(24.000000 464.000000)" fill="#FFFFFF" fill-opacity="0"/>
	<rect id="Icons/Contact" width="18.000000" height="18.000000" transform="translate(24.000000 464.000000)" fill="#727272" fill-opacity="0"/>
	<g clip-path="url(#clip2_6602)">
		<path id="Vector" d="M28.84 478.25L25.5 480.87L25.5 467C25.5 466.8 25.57 466.61 25.71 466.47C25.86 466.32 26.05 466.25 26.25 466.25L39.75 466.25C39.94 466.25 40.13 466.32 40.28 466.47C40.42 466.61 40.5 466.8 40.5 467L40.5 477.5C40.5 477.69 40.42 477.89 40.28 478.03C40.13 478.17 39.94 478.25 39.75 478.25L28.84 478.25Z" fill="#767676" fill-opacity="1.000000" fill-rule="nonzero"/>
	</g>
</svg>
