<svg width="79.353027" height="72.646973" viewBox="0 0 79.353 72.647" fill="none" xmlns="http://www.w3.org/2000/svg" xmlns:xlink="http://www.w3.org/1999/xlink">
	<desc>
			Created with Pixso.
	</desc>
	<defs>
		<clipPath id="clip2_6449">
			<rect id="Icons/illustration" width="79.352943" height="72.647057" fill="white" fill-opacity="0"/>
		</clipPath>
	</defs>
	<rect id="Icons/illustration" width="71.000000" height="65.000000" transform="translate(0.000000 7.646973)" fill="#FFFFFF" fill-opacity="0"/>
	<rect id="Icons/illustration" width="71.000000" height="65.000000" transform="translate(0.000000 7.646973)" fill="#FFFFFF" fill-opacity="0"/>
	<rect id="Icons/illustration" width="79.352943" height="72.647057" fill="#FFFFFF" fill-opacity="0"/>
	<rect id="Icons/illustration" width="79.352943" height="72.647057" fill="#FFFFFF" fill-opacity="0"/>
	<rect id="Icons/illustration" width="79.352943" height="72.647057" fill="#FFFFFF" fill-opacity="0"/>
	<g clip-path="url(#clip2_6449)">
		<path id="Vector" d="M36.88 52.71C36.24 52.71 35.72 53.18 35.72 53.77C35.72 54.36 36.24 54.83 36.88 54.83L42.46 54.83C43.1 54.83 43.62 54.36 43.62 53.77C43.62 53.18 43.1 52.71 42.46 52.71L36.88 52.71Z" fill="#FFB400" fill-opacity="1.000000" fill-rule="nonzero"/>
		<path id="Vector" d="M13.94 36.18L21.63 36.18C22.1 37.3 23.28 38.1 24.66 38.1C26.05 38.1 27.23 37.3 27.7 36.18L29.24 36.18C29.88 36.18 30.4 35.71 30.4 35.12C30.4 34.53 29.88 34.05 29.24 34.05L27.7 34.05C27.23 32.93 26.05 32.14 24.66 32.14C23.28 32.14 22.1 32.93 21.63 34.05L13.94 34.05C13.3 34.05 12.78 34.53 12.78 35.12C12.78 35.71 13.3 36.18 13.94 36.18ZM24.66 34.27C25.18 34.27 25.59 34.65 25.59 35.12C25.59 35.59 25.18 35.97 24.66 35.97C24.15 35.97 23.73 35.59 23.73 35.12C23.73 34.65 24.15 34.27 24.66 34.27Z" fill="#FFB400" fill-opacity="1.000000" fill-rule="nonzero"/>
		<path id="Vector" d="M13.94 30.08L15.43 30.08C15.9 31.2 17.08 32 18.46 32C19.85 32 21.03 31.2 21.5 30.08L29.24 30.08C29.88 30.08 30.4 29.6 30.4 29.02C30.4 28.43 29.88 27.95 29.24 27.95L21.5 27.95C21.03 26.83 19.85 26.04 18.46 26.04C17.08 26.04 15.9 26.83 15.43 27.95L13.94 27.95C13.3 27.95 12.78 28.43 12.78 29.02C12.78 29.6 13.3 30.08 13.94 30.08ZM18.46 28.16C18.98 28.16 19.39 28.55 19.39 29.02C19.39 29.49 18.98 29.87 18.46 29.87C17.95 29.87 17.53 29.49 17.53 29.02C17.53 28.55 17.95 28.16 18.46 28.16Z" fill="#FFB400" fill-opacity="1.000000" fill-rule="nonzero"/>
		<path id="Vector" d="M30.63 19.23C30.63 19.81 30.11 20.29 29.47 20.29C28.83 20.29 28.31 19.81 28.31 19.23C28.31 18.64 28.83 18.16 29.47 18.16C30.11 18.16 30.63 18.64 30.63 19.23Z" fill="#FFB400" fill-opacity="1.000000" fill-rule="evenodd"/>
		<path id="Vector" d="M27.43 19.23C27.43 19.81 26.91 20.29 26.27 20.29C25.62 20.29 25.1 19.81 25.1 19.23C25.1 18.64 25.62 18.16 26.27 18.16C26.91 18.16 27.43 18.64 27.43 19.23Z" fill="#FFB400" fill-opacity="1.000000" fill-rule="evenodd"/>
		<path id="Vector" d="M24.22 19.23C24.22 19.81 23.7 20.29 23.06 20.29C22.42 20.29 21.9 19.81 21.9 19.23C21.9 18.64 22.42 18.16 23.06 18.16C23.7 18.16 24.22 18.64 24.22 19.23Z" fill="#FFB400" fill-opacity="1.000000" fill-rule="evenodd"/>
		<path id="Vector" d="M75.86 7.16L75.43 7.16L75.75 6.86C76.72 5.97 76.72 4.52 75.75 3.63L73.21 1.3C72.23 0.41 70.65 0.41 69.68 1.3L63.28 7.16L3.48 7.16C1.56 7.16 0 8.59 0 10.35L0 54.54C0 56.7 1.91 58.45 4.26 58.45L31.79 58.45L31.79 65.97L26.19 65.97C24.69 65.97 23.48 67.09 23.48 68.46L23.48 69.52C23.48 70.89 24.69 72 26.19 72L53.16 72C54.65 72 55.87 70.89 55.87 69.52L55.87 68.46C55.87 67.09 54.65 65.97 53.16 65.97L47.55 65.97L47.55 58.45L59.97 58.45C60.62 58.45 61.14 57.97 61.14 57.38C61.14 56.79 60.62 56.32 59.97 56.32L4.26 56.32C3.19 56.32 2.32 55.52 2.32 54.54L2.32 51.39L77.02 51.39L77.02 54.54C77.02 55.52 76.15 56.32 75.09 56.32L65.4 56.32C64.76 56.32 64.24 56.79 64.24 57.38C64.24 57.97 64.76 58.45 65.4 58.45L75.09 58.45C77.44 58.45 79.35 56.7 79.35 54.54L79.35 10.35C79.35 8.59 77.78 7.16 75.86 7.16ZM53.16 68.1C53.37 68.1 53.54 68.26 53.54 68.46L53.54 69.52C53.54 69.72 53.37 69.87 53.16 69.87L26.19 69.87C25.97 69.87 25.8 69.72 25.8 69.52L25.8 68.46C25.8 68.26 25.97 68.1 26.19 68.1L53.16 68.1ZM34.11 58.45L45.23 58.45L45.23 65.97L34.11 65.97L34.11 58.45ZM71.32 2.81C71.39 2.75 71.5 2.75 71.56 2.81L74.11 5.14C74.17 5.2 74.17 5.3 74.11 5.36L71.68 7.58L68.89 5.03L71.32 2.81ZM67.25 6.53L70.03 9.08L69.22 9.83L66.44 7.28L67.25 6.53ZM64.8 8.78L67.58 11.33L53.82 23.92L51.04 21.37L64.8 8.78ZM63.07 18.51C64.66 18.51 65.94 19.69 65.94 21.14C65.94 22.58 64.66 23.76 63.07 23.76C61.49 23.76 60.21 22.58 60.21 21.14C60.21 21.12 60.21 21.1 60.21 21.09L63.02 18.51C63.04 18.51 63.06 18.51 63.07 18.51ZM51.81 25.09L48.37 26.37L49.77 23.22L51.81 25.09ZM77.02 49.27L2.32 49.27L2.32 10.35C2.32 9.76 2.84 9.29 3.48 9.29L60.96 9.29L59.18 10.91L19.68 10.91C19.04 10.91 18.52 11.39 18.52 11.97C18.52 12.56 19.04 13.04 19.68 13.04L56.86 13.04L48.66 20.54C48.43 20.76 48.25 21.01 48.12 21.29L45.53 27.11C45.29 27.64 45.42 28.25 45.87 28.66C46.17 28.93 46.57 29.08 46.97 29.08C47.17 29.08 47.37 29.04 47.56 28.97L53.92 26.59C54.22 26.48 54.48 26.32 54.71 26.12L58.25 22.88C59.01 24.64 60.89 25.89 63.07 25.89C65.94 25.89 68.27 23.76 68.27 21.14C68.27 19.13 66.9 17.41 64.98 16.72L69 13.04L72.93 13.04L72.93 45.52L72.31 45.52L68.1 38.84C67.78 38.33 67.07 38.15 66.51 38.45C65.95 38.74 65.76 39.39 66.08 39.9L69.63 45.52L53.39 45.52L51.65 42.75L59.77 29.88L63.37 35.6C63.69 36.11 64.4 36.28 64.96 35.99C65.52 35.69 65.71 35.04 65.39 34.53L61.54 28.43C61.17 27.85 60.5 27.5 59.77 27.5C59.02 27.5 58.36 27.85 57.99 28.43L50.3 40.63L40.44 24.98C40.07 24.4 39.41 24.04 38.67 24.04C37.93 24.04 37.26 24.4 36.89 24.98L34.27 29.14L34.27 17.73C34.27 16.36 33.06 15.25 31.56 15.25L11.62 15.25C10.12 15.25 8.91 16.36 8.91 17.73L8.91 41C8.91 41.98 9.78 42.77 10.84 42.77L25.67 42.77L23.94 45.52L6.42 45.52L6.42 13.04L14.25 13.04C14.9 13.04 15.42 12.56 15.42 11.97C15.42 11.39 14.9 10.91 14.25 10.91L6.03 10.91C4.96 10.91 4.09 11.7 4.09 12.68L4.09 45.87C4.09 46.85 4.96 47.64 6.03 47.64L73.31 47.64C74.38 47.64 75.25 46.85 75.25 45.87L75.25 12.68C75.25 11.7 74.38 10.91 73.31 10.91L71.33 10.91L73.1 9.29L75.86 9.29C76.5 9.29 77.02 9.76 77.02 10.35L77.02 49.27ZM31.95 23.62L31.95 40.65L11.23 40.65L11.23 23.62L31.95 23.62ZM11.23 21.5L11.23 17.73C11.23 17.54 11.41 17.38 11.62 17.38L31.56 17.38C31.77 17.38 31.95 17.54 31.95 17.73L31.95 21.5L11.23 21.5ZM28.36 42.77L32.34 42.77C33.4 42.77 34.27 41.98 34.27 41L34.27 38.75C34.56 38.87 34.89 38.94 35.23 38.94C36.02 38.94 36.73 38.57 37.13 37.94L39.11 34.8C39.16 34.71 39.26 34.69 39.32 34.69C39.39 34.69 39.48 34.71 39.54 34.8L40.76 36.74C41.16 37.36 41.87 37.74 42.66 37.74C43.45 37.74 44.16 37.36 44.56 36.74L44.86 36.26L50.7 45.51L26.63 45.51L28.36 42.77ZM34.27 35.18L34.27 33.39L38.67 26.43L43.52 34.13L42.66 35.49L41.55 33.74C41.09 33 40.25 32.56 39.32 32.56C38.39 32.56 37.56 33 37.09 33.74L35.23 36.7L34.27 35.18Z" fill="#FFB400" fill-opacity="1.000000" fill-rule="nonzero"/>
	</g>
</svg>
