<svg width="65.875000" height="53.125000" viewBox="0 0 65.875 53.125" fill="none" xmlns="http://www.w3.org/2000/svg" xmlns:xlink="http://www.w3.org/1999/xlink">
	<desc>
			Created with Pixso.
	</desc>
	<defs/>
	<path id="Vector" d="M62.15 0L3.71 0C2.73 0 1.78 0.39 1.09 1.09C0.39 1.78 0 2.73 0 3.71L0 40.9C0 41.89 0.39 42.83 1.09 43.53C1.78 44.23 2.73 44.62 3.71 44.62L24.99 44.62L23.71 47.81L18.06 47.81C17.78 47.81 17.51 47.92 17.31 48.12C17.11 48.32 17 48.59 17 48.87L17 51L10.62 51C10.34 51 10.07 51.11 9.87 51.31C9.67 51.51 9.56 51.78 9.56 52.06C9.56 52.34 9.67 52.61 9.87 52.81C10.07 53.01 10.34 53.12 10.62 53.12L55.25 53.12C55.53 53.12 55.8 53.01 56 52.81C56.2 52.61 56.31 52.34 56.31 52.06C56.31 51.78 56.2 51.51 56 51.31C55.8 51.11 55.53 51 55.25 51L48.87 51L48.87 48.87C48.87 48.59 48.76 48.32 48.56 48.12C48.36 47.92 48.09 47.81 47.81 47.81L42.15 47.81L40.88 44.62L62.15 44.62C63.14 44.62 64.08 44.23 64.78 43.53C65.48 42.83 65.87 41.89 65.87 40.9L65.87 3.71C65.87 2.73 65.48 1.78 64.78 1.09C64.08 0.39 63.14 0 62.15 0ZM46.75 49.93L46.75 51L19.12 51L19.12 49.93L46.75 49.93ZM26 47.81L27.28 44.62L38.59 44.62L39.86 47.81L26 47.81ZM63.75 40.9C63.74 41.32 63.58 41.73 63.28 42.03C62.98 42.33 62.57 42.49 62.15 42.5L3.71 42.5C3.29 42.49 2.89 42.33 2.59 42.03C2.29 41.73 2.12 41.32 2.12 40.9L2.12 38.25L63.75 38.25L63.75 40.9ZM63.75 36.12L2.12 36.12L2.12 3.71C2.12 3.29 2.29 2.89 2.59 2.59C2.89 2.29 3.29 2.12 3.71 2.12L62.15 2.12C62.57 2.12 62.98 2.29 63.28 2.59C63.58 2.89 63.74 3.29 63.75 3.71L63.75 36.12Z" fill="#FFB400" fill-opacity="1.000000" fill-rule="nonzero"/>
	<path id="Vector" d="M28.1 27.45C28.22 27.52 28.35 27.58 28.48 27.6C28.62 27.63 28.76 27.63 28.9 27.6C29.04 27.57 29.16 27.51 29.28 27.44C29.4 27.36 29.49 27.26 29.57 27.14L37.94 14.39C38.09 14.15 38.15 13.87 38.09 13.59C38.03 13.32 37.87 13.07 37.63 12.92C37.4 12.76 37.11 12.71 36.83 12.77C36.56 12.82 36.32 12.99 36.16 13.22L27.79 25.97C27.72 26.09 27.66 26.22 27.64 26.36C27.61 26.5 27.61 26.64 27.64 26.77C27.67 26.91 27.73 27.04 27.8 27.15C27.88 27.27 27.98 27.37 28.1 27.45Z" fill="#FFB400" fill-opacity="1.000000" fill-rule="nonzero"/>
	<path id="Vector" d="M39.69 27.37C39.91 27.55 40.19 27.64 40.47 27.62C40.75 27.59 41.01 27.45 41.19 27.24L46.5 20.86C46.66 20.67 46.75 20.43 46.75 20.18C46.75 19.93 46.66 19.69 46.5 19.5L41.19 13.13C41.1 13.02 40.99 12.93 40.86 12.86C40.74 12.8 40.6 12.76 40.47 12.75C40.33 12.73 40.19 12.75 40.05 12.79C39.92 12.83 39.79 12.9 39.69 12.99C39.58 13.08 39.49 13.19 39.42 13.31C39.36 13.43 39.32 13.57 39.31 13.71C39.3 13.85 39.31 13.99 39.35 14.12C39.4 14.26 39.46 14.38 39.55 14.49L44.3 20.18L39.55 25.88C39.37 26.09 39.29 26.37 39.31 26.65C39.34 26.93 39.47 27.19 39.69 27.37Z" fill="#FFB400" fill-opacity="1.000000" fill-rule="nonzero"/>
	<path id="Vector" d="M24.68 27.24C24.77 27.35 24.88 27.43 25 27.5C25.12 27.57 25.26 27.61 25.4 27.62C25.54 27.63 25.68 27.62 25.81 27.58C25.95 27.54 26.07 27.47 26.18 27.38C26.29 27.29 26.38 27.18 26.44 27.05C26.51 26.93 26.54 26.79 26.56 26.66C26.57 26.52 26.55 26.37 26.51 26.24C26.47 26.11 26.4 25.98 26.31 25.88L21.57 20.18L26.31 14.49C26.4 14.38 26.47 14.26 26.51 14.12C26.55 13.99 26.57 13.85 26.56 13.71C26.54 13.57 26.51 13.43 26.44 13.31C26.38 13.19 26.29 13.08 26.18 12.99C26.07 12.9 25.95 12.83 25.81 12.79C25.68 12.75 25.54 12.73 25.4 12.75C25.26 12.76 25.12 12.8 25 12.86C24.88 12.93 24.77 13.02 24.68 13.13L19.37 19.5C19.21 19.69 19.12 19.93 19.12 20.18C19.12 20.43 19.21 20.67 19.37 20.86L24.68 27.24Z" fill="#FFB400" fill-opacity="1.000000" fill-rule="nonzero"/>
</svg>
